<?xml version="1.0" encoding="utf-8"?>
<!-- Generator: Adobe Illustrator 27.1.1, SVG Export Plug-In . SVG Version: 6.00 Build 0)  -->
<svg version="1.1" id="OBJECTS" xmlns="http://www.w3.org/2000/svg" xmlns:xlink="http://www.w3.org/1999/xlink" x="0px" y="0px"
	 viewBox="0 0 1734.69 1059" style="enable-background:new 0 0 1734.69 1059;" xml:space="preserve">
<style type="text/css">
	.st0{fill:url(#XMLID_00000183243059293821611900000007918259815965176493_);}
	.st1{font-family:'Roboto-Light';}
	.st2{font-size:69.9514px;}
	.st3{fill:none;stroke:#000000;stroke-width:0.5;stroke-miterlimit:10;}
	.st4{fill:url(#SVGID_1_);}
	.st5{fill:url(#SVGID_00000156585723666829927440000006931514190945451659_);}
	.st6{fill:url(#SVGID_00000170270309329469210050000002916047666227802768_);}
	.st7{fill:url(#SVGID_00000077298739138436130310000000036698316411827634_);}
	.st8{fill:url(#SVGID_00000080895445251589381960000014299954594634423687_);}
	.st9{fill:url(#SVGID_00000070797072939252645190000008944087788097891768_);}
	.st10{fill:url(#SVGID_00000168103495845381842820000014796212143125091215_);}
	.st11{fill:url(#SVGID_00000143610227234622739880000016514052275038282411_);}
	.st12{fill:none;stroke:#000000;stroke-width:3;stroke-linecap:round;stroke-miterlimit:10;}
	.st13{font-family:'Roboto-Regular';}
	.st14{font-size:57.6833px;}
	.st15{fill:#FFFFFF;stroke:#000000;stroke-width:0.5;stroke-miterlimit:10;}
	.st16{fill:url(#SVGID_00000137093220126771072250000000001001356082317959_);}
	.st17{fill:url(#SVGID_00000174595693772459522580000014732476224148987068_);}
</style>
<g id="XMLID_00000173872148905048653560000004617703711620903339_">
	
		<linearGradient id="XMLID_00000047748741455792618260000014384471732322128815_" gradientUnits="userSpaceOnUse" x1="7093.2007" y1="-3585.0012" x2="8331.29" y2="-1174.2534" gradientTransform="matrix(0 1 -1 0 -1614.9799 -7130.0059)">
		<stop  offset="0" style="stop-color:#FFFFFF"/>
		<stop  offset="1" style="stop-color:#D1D3D4"/>
	</linearGradient>
	
		<path id="XMLID_00000034078006651902599570000015597421861748245136_" style="fill:url(#XMLID_00000047748741455792618260000014384471732322128815_);" d="
		M0,998.38L0,60.61C0,27.14,27.14,0,60.61,0l1613.46,0c33.48,0,60.61,27.14,60.61,60.61v937.77c0,33.48-27.14,60.61-60.61,60.61
		H60.61C27.14,1059,0,1031.86,0,998.38z"/>
</g>
<text transform="matrix(1 0 0 1 265.0054 240.033)" class="st1 st2">Lead</text>
<text transform="matrix(1 0 0 1 185.4224 410.4487)" class="st1 st2">Arsenic</text>
<text transform="matrix(1 0 0 1 162.9136 580.8645)" class="st1 st2">Mercury</text>
<text transform="matrix(1 0 0 1 114.48 751.2803)" class="st1 st2">Cadmium</text>
<line class="st3" x1="636.69" y1="834.2" x2="636.69" y2="154.39"/>
<line class="st3" x1="834.65" y1="834.2" x2="834.65" y2="154.39"/>
<line class="st3" x1="1033.03" y1="834.2" x2="1033.03" y2="154.39"/>
<line class="st3" x1="1232.49" y1="835.47" x2="1232.49" y2="155.66"/>
<line class="st3" x1="1430.75" y1="835.47" x2="1430.75" y2="155.66"/>
<linearGradient id="SVGID_1_" gradientUnits="userSpaceOnUse" x1="439.8415" y1="240.6507" x2="740.6866" y2="240.6507">
	<stop  offset="0" style="stop-color:#F5AE0B"/>
	<stop  offset="1" style="stop-color:#FE4748"/>
</linearGradient>
<path class="st4" d="M439.84,274.79v-68.28h289.9c6.04,0,10.94,4.9,10.94,10.94v46.39c0,6.04-4.9,10.94-10.94,10.94H439.84z"/>
<linearGradient id="SVGID_00000088844321167471098030000018105366423536406913_" gradientUnits="userSpaceOnUse" x1="5204.2993" y1="-539.6618" x2="5241.0845" y2="784.6356" gradientTransform="matrix(0 1 -1 0 853.8861 -5026.3833)">
	<stop  offset="0" style="stop-color:#418BA1"/>
	<stop  offset="1" style="stop-color:#60BCAC"/>
</linearGradient>
<path style="fill:url(#SVGID_00000088844321167471098030000018105366423536406913_);" d="M439.84,227.3v-72.91h976.02
	c8.1,0,14.66,6.56,14.66,14.66v43.59c0,8.1-6.56,14.66-14.66,14.66H439.84z"/>
<linearGradient id="SVGID_00000126311841007416617440000007026946875311172540_" gradientUnits="userSpaceOnUse" x1="439.8415" y1="414.0794" x2="740.6866" y2="414.0794">
	<stop  offset="0" style="stop-color:#F5AE0B"/>
	<stop  offset="1" style="stop-color:#FE4748"/>
</linearGradient>
<path style="fill:url(#SVGID_00000126311841007416617440000007026946875311172540_);" d="M439.84,448.22v-68.28h289.9
	c6.04,0,10.94,4.9,10.94,10.94v46.39c0,6.04-4.9,10.94-10.94,10.94H439.84z"/>
<linearGradient id="SVGID_00000094606997853738833550000002186691514341297339_" gradientUnits="userSpaceOnUse" x1="5386.583" y1="124.0481" x2="5397.7959" y2="527.7141" gradientTransform="matrix(0 1 -1 0 853.8861 -5026.3833)">
	<stop  offset="0" style="stop-color:#418BA1"/>
	<stop  offset="1" style="stop-color:#60BCAC"/>
</linearGradient>
<path style="fill:url(#SVGID_00000094606997853738833550000002186691514341297339_);" d="M439.84,400.73v-72.91h286.19
	c8.1,0,14.66,6.56,14.66,14.66v43.59c0,8.1-6.56,14.66-14.66,14.66H439.84z"/>
<linearGradient id="SVGID_00000179628670367774495320000007847658219044690847_" gradientUnits="userSpaceOnUse" x1="439.8415" y1="581.9136" x2="496.243" y2="581.9136">
	<stop  offset="0" style="stop-color:#F5AE0B"/>
	<stop  offset="1" style="stop-color:#FE4748"/>
</linearGradient>
<path style="fill:url(#SVGID_00000179628670367774495320000007847658219044690847_);" d="M439.84,616.05v-68.28h45.46
	c6.04,0,10.94,4.9,10.94,10.94v46.39c0,6.04-4.9,10.94-10.94,10.94H439.84z"/>
<linearGradient id="SVGID_00000061441872587321777420000014881764327514508428_" gradientUnits="userSpaceOnUse" x1="5554.4175" y1="124.0481" x2="5565.6299" y2="527.7141" gradientTransform="matrix(0 1 -1 0 853.8861 -5026.3833)">
	<stop  offset="0" style="stop-color:#418BA1"/>
	<stop  offset="1" style="stop-color:#60BCAC"/>
</linearGradient>
<path style="fill:url(#SVGID_00000061441872587321777420000014881764327514508428_);" d="M439.84,568.57v-72.91h286.19
	c8.1,0,14.66,6.56,14.66,14.66v43.59c0,8.1-6.56,14.66-14.66,14.66H439.84z"/>
<linearGradient id="SVGID_00000057851222708692954360000001067964887739309982_" gradientUnits="userSpaceOnUse" x1="439.8415" y1="751.8981" x2="496.243" y2="751.8981">
	<stop  offset="0" style="stop-color:#F5AE0B"/>
	<stop  offset="1" style="stop-color:#FE4748"/>
</linearGradient>
<path style="fill:url(#SVGID_00000057851222708692954360000001067964887739309982_);" d="M439.84,786.04v-68.28h45.46
	c6.04,0,10.94,4.9,10.94,10.94v46.39c0,6.04-4.9,10.94-10.94,10.94H439.84z"/>
<linearGradient id="SVGID_00000149363090740397717450000005983875423845029542_" gradientUnits="userSpaceOnUse" x1="5724.4019" y1="124.0481" x2="5735.6143" y2="527.7141" gradientTransform="matrix(0 1 -1 0 853.8861 -5026.3833)">
	<stop  offset="0" style="stop-color:#418BA1"/>
	<stop  offset="1" style="stop-color:#60BCAC"/>
</linearGradient>
<path style="fill:url(#SVGID_00000149363090740397717450000005983875423845029542_);" d="M439.84,738.55v-72.91h286.19
	c8.1,0,14.66,6.56,14.66,14.66v43.59c0,8.1-6.56,14.66-14.66,14.66H439.84z"/>
<polyline class="st12" points="439.84,89.38 439.84,815.34 1508.27,815.34 "/>
<text transform="matrix(1 0 0 1 429.7706 894.5173)" class="st13 st14">0</text>
<text transform="matrix(1 0 0 1 619.304 894.5173)" class="st13 st14">2</text>
<text transform="matrix(1 0 0 1 821.1617 894.5173)" class="st13 st14">4</text>
<text transform="matrix(1 0 0 1 1018.4011 894.5173)" class="st13 st14">6</text>
<text transform="matrix(1 0 0 1 1215.4301 894.5173)" class="st13 st14">8</text>
<text transform="matrix(1 0 0 1 680.8673 972.5488)" class="st13 st14">Parts per million (ppm)</text>
<rect x="880.39" y="505.65" class="st15" width="649.52" height="241.43"/>
<text transform="matrix(1 0 0 1 995.3467 598.3762)" class="st13 st14">US Pharmacopoeia</text>
<text transform="matrix(1 0 0 1 995.3467 693.3762)" class="st13 st14">ActiveHerb</text>
<text transform="matrix(0.583 0 0 0.583 1278.0742 674.1677)" class="st13 st14">TM</text>
<text transform="matrix(1 0 0 1 1397.521 894.5173)" class="st13 st14">10</text>
<linearGradient id="SVGID_00000163759128597593187050000007496915989018089401_" gradientUnits="userSpaceOnUse" x1="928.0092" y1="576.7264" x2="984.3704" y2="576.7264">
	<stop  offset="0" style="stop-color:#418BA1"/>
	<stop  offset="1" style="stop-color:#60BCAC"/>
</linearGradient>
<path style="fill:url(#SVGID_00000163759128597593187050000007496915989018089401_);" d="M978.21,604.91h-44.04
	c-3.4,0-6.16-2.76-6.16-6.16v-44.04c0-3.4,2.76-6.16,6.16-6.16h44.04c3.4,0,6.16,2.76,6.16,6.16v44.04
	C984.37,602.15,981.61,604.91,978.21,604.91z"/>
<linearGradient id="SVGID_00000112598126837587445150000011174453167842176913_" gradientUnits="userSpaceOnUse" x1="4743.0278" y1="-5378.3442" x2="4799.3887" y2="-5378.3442" gradientTransform="matrix(-1 0 0 -1 5727.3979 -4705.5049)">
	<stop  offset="0" style="stop-color:#F5AE0B"/>
	<stop  offset="1" style="stop-color:#FE4748"/>
</linearGradient>
<path style="fill:url(#SVGID_00000112598126837587445150000011174453167842176913_);" d="M934.17,644.66h44.04
	c3.4,0,6.16,2.76,6.16,6.16v44.04c0,3.4-2.76,6.16-6.16,6.16h-44.04c-3.4,0-6.16-2.76-6.16-6.16v-44.04
	C928.01,647.42,930.77,644.66,934.17,644.66z"/>
</svg>
